<svg xmlns="http://www.w3.org/2000/svg" width="128" height="80" viewBox="0 0 128 80">
  <defs>
    <linearGradient id="fur" x1="0" x2="1">
      <stop offset="0" stop-color="#5e5142"/>
      <stop offset="1" stop-color="#d2b07d"/>
    </linearGradient>
  </defs>
  <ellipse cx="60" cy="70" rx="34" ry="5" fill="#000" opacity=".2"/>
  <path d="M27 48c2-14 18-25 39-25 16 0 28 7 34 18 6 1 11 5 11 11 0 8-8 12-18 12H50c-15 0-25-6-23-16z" fill="url(#fur)"/>
  <path d="M96 31c4-12 13-18 24-17-2 10-3 19 4 27-10 1-19-2-28-10z" fill="#574336"/>
  <circle cx="88" cy="40" r="3" fill="#ff8f54"/>
  <path d="M40 61h10v10H39zM61 61h10v10H60zM78 61h10v10H77z" fill="#2d251e"/>
</svg>
