<svg xmlns="http://www.w3.org/2000/svg" width="96" height="112" viewBox="0 0 96 112">
  <defs>
    <linearGradient id="g" x1="0" x2="1">
      <stop offset="0" stop-color="#3c2f74"/>
      <stop offset="1" stop-color="#7d62ff"/>
    </linearGradient>
  </defs>
  <ellipse cx="48" cy="104" rx="24" ry="5" fill="#000" opacity=".2"/>
  <path d="M50 10c17 1 27 15 22 30-2 8-7 14-9 21-2 8 4 17 7 25-12-5-21-2-28 9-2-9 1-19-5-26-5-7-13-15-12-26 2-19 10-34 25-33z" fill="url(#g)"/>
  <path d="M47 17c8-1 17 5 18 15-11-4-21 2-28 10-3-12 0-23 10-25z" fill="#161427" opacity=".8"/>
  <circle cx="48" cy="42" r="4" fill="#e4dbff"/>
  <path d="M29 77c11-5 20-6 30-4" stroke="#cabaff" stroke-width="3" opacity=".5"/>
</svg>
