<svg xmlns="http://www.w3.org/2000/svg" width="256" height="296" viewBox="0 0 256 296">
  <rect width="256" height="296" rx="28" fill="#171c25"/>
  <path d="M63 265c7-54 27-87 64-87 41 0 58 34 66 87z" fill="#d7ddea"/>
  <path d="M86 141c0-44 21-78 53-78 33 0 55 33 55 78-3 39-23 63-55 63-31 0-50-23-53-63z" fill="#f0c294"/>
  <path d="M81 120c1-39 27-70 64-69 28 0 47 18 57 45-21-5-34 2-50 12-17 10-38 13-71 12z" fill="#151821"/>
  <circle cx="118" cy="143" r="7" fill="#ff6168"/>
  <circle cx="150" cy="143" r="7" fill="#ff6168"/>
</svg>
